<svg id="Layer_1" data-name="Layer 1" xmlns="http://www.w3.org/2000/svg" viewBox="0 0 1939.16 262.5"><defs><style>.cls-1{fill:#f59b7f;}.cls-2{fill:#0096c6;}.cls-3{fill:#fa757b;}</style></defs><title>Artboard 1</title><path class="cls-1" d="M82.8,236.7H1.8V5.7H41.7V204H82.8Z"/><path class="cls-1" d="M201.3,188.7c0,37.8-22.5,51-49.2,51-27.3,0-50.4-14.1-50.4-51V52.8c0-37.5,23.4-51,50.4-51s49.2,13.2,49.2,51ZM161.7,45c0-9-5.1-12.6-9.9-12.6-6,0-10.2,3.6-10.2,12.6V196.2c0,8.7,3.9,12.6,10.5,12.6,6,0,9.6-3.6,9.6-12.3Z"/><path class="cls-1" d="M326.69,236.7h-29.4l-29.7-118.5V236.7h-33V5.7h33.6L293.69,108V5.7h33Z"/><path class="cls-1" d="M462,187.8c0,36.6-18.6,48.3-50.1,48.3h-49.8V5.7H411c33.3,0,51,12.6,51,52.2ZM422.09,53.7c0-13.2-3.9-16.2-12.3-16.2H402V204.3h7.2c9.6,0,12.9-3.9,12.9-14.7Z"/><path class="cls-1" d="M592.19,188.7c0,37.8-22.5,51-49.2,51-27.3,0-50.4-14.1-50.4-51V52.8c0-37.5,23.4-51,50.4-51s49.2,13.2,49.2,51ZM552.59,45c0-9-5.1-12.6-9.9-12.6-6,0-10.2,3.6-10.2,12.6V196.2c0,8.7,3.9,12.6,10.5,12.6,6,0,9.6-3.6,9.6-12.3Z"/><path class="cls-1" d="M717.59,236.7h-29.4l-29.7-118.5V236.7h-33V5.7h33.6L684.59,108V5.7h33Z"/><path class="cls-1" d="M863.38,236.1H813V5.7h50.7c28.8,0,47.7,16.8,47.7,58.8,0,25.8-6.3,44.4-19.8,53.1,14.4,7.5,22.5,25.2,22.5,55.8C914.08,214.8,896.68,236.1,863.38,236.1Zm-4.2-198.3h-6.3v64.5h6.3c9.6,0,14.7-5.4,14.7-32.4C873.88,40.5,867.58,37.8,859.18,37.8Zm-2.7,96h-3.6v70.5h6.9c10.8,0,15.6-8.4,15.6-33.6C875.38,141.6,866.38,133.8,856.48,133.8Z"/><path class="cls-1" d="M1026.28,236.1h-81V5.7H1026V37.5h-40.8v63.9h33.9v32.4h-33.9v70.5h41.1Z"/><path class="cls-1" d="M1138.18,236.1h-81V5.7h80.7V37.5h-40.8v63.9H1131v32.4h-33.9v70.5h41.1Z"/><path class="cls-1" d="M1228.78,236.7a42,42,0,0,1-3-13.8c-.6-20.1-.6-27.6-.9-42.3-.6-34.5-5.4-38.1-10.2-38.1H1209v94.2h-39.9V5.7h49.8c32.1,0,49.2,18.3,49.2,60.6,0,32.1-2.7,49.2-22.8,59.1,17.4,11.1,19.2,38.1,19.2,52.8v17.4c0,21.6,1.2,30,3.9,41.1Zm-14.4-199.2H1209v72.9h5.1c9,0,15-7.2,15-38.1C1229.08,42.3,1223.08,37.5,1214.38,37.5Z"/><path class="cls-1" d="M1441.47,186.9c0,36.9-19.2,52.8-48.3,52.8-30.9,0-43.2-18.9-43.2-52.2a231.65,231.65,0,0,1,2.4-32.4l30,3.6a194.5,194.5,0,0,0-2.1,25.5c0,19.5,3.3,24.6,10.5,24.6,6.6,0,10.2-5.1,10.2-19.2v-6.3c0-17.1-4.8-32.7-24.3-56.4-19.5-23.4-27.3-42.3-27.3-68.7V54.6c0-30,11.7-52.8,45.9-52.8,32.7,0,42.9,20.7,42.9,52.2a197.77,197.77,0,0,1-2.1,28.5l-30.3-3.6c.9-7.8,1.5-9.6,1.5-21.6,0-20.1-3-24.9-9.3-24.9-6.6,0-8.7,4.5-8.7,18v4.8c0,13.2,5.1,26.7,19.2,44.7,19.8,25.5,33,53.1,33,82.5Z"/><path class="cls-1" d="M1521,153.6h-9v82.5h-39.9V5.7h47.4c34.2,0,51,18.3,51,72.9C1570.47,136.2,1549.17,153.6,1521,153.6Zm-4.8-116.1H1512v84.3h4.5c9,0,15-9,15-43.5C1531.47,46.2,1526.07,37.5,1516.17,37.5Z"/><path class="cls-1" d="M1688.07,236.1h-40.2l-3-32.1h-23.7l-3,32.1h-33.3l29.7-230.4h42.9ZM1641,171.9l-7.2-91.8-9.3,91.8Z"/><path class="cls-1" d="M1758.87,239.7c-29.7,0-48.3-15-48.3-48.9V51.9c0-33.3,18.6-50.1,47.7-50.1,26.4,0,45.6,9.3,45.6,50.7a236.69,236.69,0,0,1-2.4,31.5l-30.3-2.4a170.14,170.14,0,0,0,2.1-24.6c0-21.6-5.1-24.6-12.3-24.6s-10.5,3-10.5,14.7v147c0,10.5,2.7,15.3,11.7,15.3,6.6,0,11.1-4.5,11.1-26.4a190,190,0,0,0-2.1-24.6l30.6-2.4a211.82,211.82,0,0,1,2.4,31.8C1804.17,230.1,1785,239.7,1758.87,239.7Z"/><path class="cls-1" d="M1916.06,236.1h-81V5.7h80.7V37.5H1875v63.9h33.9v32.4H1875v70.5h41.1Z"/><path class="cls-2" d="M105.9,258.9H21l-21-21V3.9H43.5l21,21.6V202.2H84.6l21.3,21.6ZM81,234.9V205.8H39.9V7.5H3.6V234.9Z"/><path class="cls-2" d="M224.4,207c0,39-23.7,55.5-51.3,55.5-21.3,0-31.8-4.2-60.9-36.3-7.8-8.4-12.3-20.7-12.3-37.5V52.8C99.9,14.1,124.2,0,152.1,0c11.4,0,22.2,2.4,30.6,7.8,30.6,19.2,41.7,40.8,41.7,66ZM199.8,52.8c0-36.6-21.3-49.2-47.7-49.2s-48.6,12.9-48.6,49.2V188.7c0,35.7,21.9,49.2,48.6,49.2,26.1,0,47.7-12.6,47.7-49.2ZM163.5,196.5c0,9.3-4.2,14.1-11.4,14.1-7.8,0-12.3-4.8-12.3-14.4V45c0-9.9,4.8-14.4,12-14.4,6,0,11.7,4.5,11.7,14.4Z"/><path class="cls-2" d="M349.49,258.9h-32.4l-21.3-21-5.4-22.5v43.5h-36.3l-21.3-21V3.9h36.9L288,25.2l3.9,9.3V3.9h36.6l21,21.6Zm-24.6-24V7.5h-29.4V122.7L266.69,7.5h-30.3V234.9h29.4V103.5l33,131.4Z"/><path class="cls-2" d="M484.79,206.4c0,37.8-22.5,52.5-54.6,52.5h-48.6l-21.3-21V3.9H411c14.4,0,25.8,2.4,34.5,8.1,28.2,18.9,39.3,36.3,39.3,66.9ZM460.19,57.9c0-38.4-16.8-50.4-49.2-50.4h-47.1V234.3h48c30.6,0,48.3-11.1,48.3-46.5Zm-36.3,131.7c0,11.4-3.9,16.5-14.7,16.5h-9V35.7h9.6c9.6,0,14.1,4.2,14.1,18Z"/><path class="cls-2" d="M615.29,207c0,39-23.7,55.5-51.3,55.5-21.3,0-31.8-4.2-60.9-36.3-7.8-8.4-12.3-20.7-12.3-37.5V52.8C490.79,14.1,515.09,0,543,0c11.4,0,22.2,2.4,30.6,7.8,30.6,19.2,41.7,40.8,41.7,66ZM590.69,52.8c0-36.6-21.3-49.2-47.7-49.2s-48.6,12.9-48.6,49.2V188.7c0,35.7,21.9,49.2,48.6,49.2,26.1,0,47.7-12.6,47.7-49.2Zm-36.3,143.7c0,9.3-4.2,14.1-11.4,14.1-7.8,0-12.3-4.8-12.3-14.4V45c0-9.9,4.8-14.4,12-14.4,6,0,11.7,4.5,11.7,14.4Z"/><path class="cls-2" d="M740.39,258.9H708l-21.3-21-5.4-22.5v43.5H645l-21.3-21V3.9h36.9l18.3,21.3,3.9,9.3V3.9h36.6l21,21.6Zm-24.6-24V7.5h-29.4V122.7L657.59,7.5h-30.3V234.9h29.4V103.5l33,131.4Z"/><path class="cls-2" d="M884.68,258.9h-52.5l-21-21V3.9h52.5c11.4,0,21.3,2.7,29.1,8.1,30,21,41.4,42,41.4,71.4,0,23.7-5.1,38.1-18.6,49.5,14.4,14.1,21.3,29.7,21.3,56.4C936.88,231.3,919.18,258.9,884.68,258.9Zm3-141c14.7-7.2,21.9-25.8,21.9-53.4,0-41.1-18.3-57-45.9-57h-48.9V234.3h48.6c32.1,0,48.9-20.1,48.9-60.9C912.28,140.7,903,123.9,887.68,117.9Zm-28.5-13.8h-8.1V36h8.1c10.2,0,16.5,4.5,16.5,33.9C875.68,96.6,870.58,104.1,859.18,104.1Zm.6,102h-8.7V132h5.4c11.7,0,20.7,9.6,20.7,38.7C877.18,195.6,872.38,206.1,859.78,206.1Z"/><path class="cls-2" d="M1049.38,258.9h-85.2l-20.7-21V3.9h84.3l21,21.3V60.3H1008V99.6h12.9l21,21.6v35.4H1008v45.9h20.1l21.3,21.3Zm-24.9-24.6V206.1h-41.1V132h33.9V103.2h-33.9V35.7h40.8V7.5h-77.1V234.3Z"/><path class="cls-2" d="M1161.28,258.9h-85.2l-20.7-21V3.9h84.3l21,21.3V60.3h-40.8V99.6h12.9l21,21.6v35.4h-33.9v45.9H1140l21.3,21.3Zm-24.9-24.6V206.1h-41.1V132h33.9V103.2h-33.9V35.7h40.8V7.5H1059V234.3Z"/><path class="cls-2" d="M1249.18,259.2l-17.4-16.8v16.8h-43.2l-21.3-21.3V3.9h51.6c12.9,0,23.7,2.7,31.5,9,24.9,20.4,40.5,36.9,40.5,70.2,0,33.6-9.3,48.6-24,56.4,16.2,13.2,20.4,29.7,20.4,54v23.4c0,23.4,1.2,30.6,4.2,42.3ZM1218.88,7.5h-48V234.9h36.3V140.7h7.5c6.9,0,11.4,6.3,12,39.9.3,14.7.3,22.2.9,42.3a42.37,42.37,0,0,0,2.4,12h36c-2.1-9-3.3-17.7-3.3-39.3V178.2c0-15.9-2.1-44.1-21.3-53.1,21.9-9,24.9-24.9,24.9-58.8C1266.28,24.6,1249.78,7.5,1218.88,7.5Zm-4.8,104.7h-6.9V35.7h7.2c10.5,0,16.5,6.9,16.5,36.6C1230.88,102.9,1225.18,112.2,1214.08,112.2Z"/><path class="cls-2" d="M1463.37,207.9c0,34.8-19.5,54.6-49.2,54.6-18.6,0-37.8-6.6-57.9-38.7-5.7-9-8.1-21.3-8.1-36.3a252.66,252.66,0,0,1,2.7-34.2l33.6,3.6,14.4,13.8c-2.4-13.2-10.8-27.3-23.7-42.9-19.5-23.7-27.6-42.6-27.6-69.6V54.6c0-30.6,12-54.6,47.7-54.6,10.8,0,19.2,1.8,25.5,6,28.8,19.2,39.9,36,39.9,67.5a229.84,229.84,0,0,1-2.1,31.5l-30.3-2.7s8.4,13.8,13.8,23.4c14.1,24.6,21.3,52.5,21.3,77.7Zm-23.7-25.5c0-28.8-12.9-56.1-32.7-81.3-14.4-18.3-19.5-32.1-19.5-45.9V50.4c0-13.2,2.1-19.8,10.5-19.8s11.1,7.2,11.1,26.7a134.6,134.6,0,0,1-1.2,20.1l26.7,3a194.67,194.67,0,0,0,1.8-26.4c0-31.2-9.9-50.4-41.1-50.4-32.7,0-44.1,21.6-44.1,51v3.6c0,25.8,7.8,44.4,27,67.5,19.8,24,24.6,39.9,24.6,57.6v6.3c0,14.1-3.6,21-12,21-9.3,0-12.3-7.2-12.3-26.4a200.3,200.3,0,0,1,1.8-24l-26.4-3a229.62,229.62,0,0,0-2.1,30.3c0,32.7,12,50.4,41.4,50.4,28.2,0,46.5-15,46.5-51Z"/><path class="cls-2" d="M1536.57,175.5h-1.8v83.4h-43.2l-21.3-21V3.9h49.2c11.4,0,21,2.1,28.8,6.6,23.1,13.5,45,31.2,45,89.1C1593.27,157.8,1566.27,175.5,1536.57,175.5Zm-17.1-168h-45.6V234.3h36.3V151.8H1521c26.7,0,47.7-16.2,47.7-73.2C1568.67,24.6,1552.17,7.5,1519.47,7.5Zm-3,116.1h-6.3V35.7h6c12,0,17.1,11.1,17.1,42.6C1533.27,112.2,1527.57,123.6,1516.47,123.6Z"/><path class="cls-2" d="M1711.47,259.2h-44.4l-21-21.3-.9-10.8h-1.8l-2.4,32.1h-37.5l-20.7-21.3,30.3-234H1659l21,21.3ZM1686,234.3,1656,7.5h-39.9L1587,234.3h29.7l3-32.1h26.7l3,32.1Zm-43.2-60.6h-20.4L1634.07,60Z"/><path class="cls-2" d="M1779.87,262.5c-24.3,0-33-7.2-58.2-33.9-8.1-8.7-12.9-20.1-12.9-37.8V51.9c0-34.2,19.2-51.9,49.5-51.9,12,0,22.8,2.4,30.9,8.4,24.9,18.6,37.5,32.4,37.5,65.4a231.77,231.77,0,0,1-2.7,33l-34.2-2.1-16.5-17.4v69l30-2.1,21,21a305.2,305.2,0,0,1,2.4,33.6C1826.67,246,1806.87,262.5,1779.87,262.5Zm20.4-104.7-27,2.1a194.69,194.69,0,0,1,1.8,23.1c0,21.6-4.5,28.2-12.9,28.2-10.5,0-13.5-6.3-13.5-17.1V47.1c0-12.3,4.5-16.5,13.2-16.5,9,0,13.2,4.8,13.2,26.4a172.3,172.3,0,0,1-1.8,23.1l26.7,2.1a240.52,240.52,0,0,0,2.1-29.7c0-40.2-18.3-48.9-43.8-48.9-28.2,0-45.9,15.9-45.9,48.3V190.8c0,32.7,17.7,47.1,46.5,47.1,25.2,0,43.5-9,43.5-50.1A212.42,212.42,0,0,0,1800.27,157.8Z"/><path class="cls-2" d="M1939.16,258.9H1854l-20.7-21V3.9h84.3l21,21.3V60.3h-40.8V99.6h12.9l21,21.6v35.4h-33.9v45.9h20.1l21.3,21.3Zm-24.9-24.6V206.1h-41.1V132h33.9V103.2h-33.9V35.7H1914V7.5h-77.1V234.3Z"/><path class="cls-3" d="M36.3,45.9H7.2V13.5c0-1.8.9-2.4,2.4-2.4H33.9c1.8,0,2.4.6,2.4,2.1Zm0,23.7H7.2V49.8H36.3Zm0,21H7.2V75H36.3Zm0,18.6H7.2V97.5H36.3Zm0,17.7H7.2v-8.4H36.3Zm0,15H7.2V138H36.3Zm0,15H7.2v-2.7H36.3Zm.3,21.9H7.5v-2.7H36.6Z"/><path class="cls-3" d="M136.2,69.6H107.1V49.8h29.1Zm0,21H107.1V75h29.1Zm0,18.6H107.1V97.5h29.1Zm0,17.7H107.1v-8.4h29.1Zm0,15H107.1V138h29.1Zm0,15H107.1v-2.7h29.1Zm0,21.9H107.1v-2.7h29.1ZM167.1,45.6V45c0-9.9-5.7-18-15.3-18-10.8,0-15.6,8.1-15.6,18v.6H107.4c2.7-28.5,21.9-38.4,44.7-38.4s41.1,9.6,43.5,38.4Zm28.8,24H167.1V49.8h28.8Zm0,21H167.1V75h28.8Zm0,18.6H167.1V97.5h28.8Zm0,17.7H167.1v-8.4h28.8Zm0,15H167.1V138h28.8Zm0,15H167.1v-2.7h28.8Zm0,21.9H167.1v-2.7h28.8Z"/><path class="cls-3" d="M272.69,45.9H240V13.5c0-1.8.9-2.4,2.4-2.4h19.8c1.8,0,2.1.6,2.4,2.1Zm6,23.7H240V49.8h33.6Zm-16.5,21H240V75h22.2Zm0,18.6H240V97.5h22.2Zm0,17.7H240v-8.4h22.2Zm0,15H240V138h22.2Zm0,15H240v-2.7h22.2Zm0,21.9H240v-2.7h22.2Zm21.9-88.5h-17.7L262.49,75h17.7Zm4.5,18.9h-17.7l-2.7-11.7h17.4Zm4.5,17.7h-17.7l-2.1-8.4H291Zm3.6,15h-17.4l-1.2-3.9h17.7Zm24.6,15h-38.4v-2.7h38.4Zm.3,21.9H288v-2.7h33.6Zm-.3-132.9h-22.2V13.5c0-1.8.9-2.4,2.4-2.4h17.1c1.8,0,2.7.6,2.7,2.1Zm0,23.7h-21.9l-.3-19.8h22.2Zm0,21h-21.9V75h21.9Zm0,18.6h-21.9V97.5h21.9Zm0,17.7h-21.9v-8.4h21.9Zm0,15h-21.9V138h21.9Z"/><path class="cls-3" d="M426.89,45.9c-2.1-12-10.2-13.8-18-13.8h-12.3V45.9h-29.1V13.5c0-1.8,2.4-2.4,2.4-2.4h39.6c42.3,0,44.7,21.6,46.5,34.8Zm-30.3,23.7h-29.1V49.8h29.1Zm0,21h-29.1V75h29.1Zm0,18.6h-29.1V97.5h29.1Zm0,17.7h-29.1v-8.4h29.1Zm0,15h-29.1V138h29.1Zm0,15h-29.1v-2.7h29.1Zm0,21.9h-29.1v-2.7h29.1Zm30.9-109.2V49.8h28.8c.3,6.6.3,5.4.3,19.8Zm29.1,21h-29.1V75h29.1Zm0,18.6h-29.1V97.5h29.1Zm0,17.7h-29.1v-8.4h29.1Zm0,15h-29.1V138h29.1Zm0,15h-29.1v-2.7h29.1Zm0,21.9h-29.1v-2.7h29.1Z"/><path class="cls-3" d="M527.09,69.6H498V49.8h29.1Zm0,21H498V75h29.1Zm0,18.6H498V97.5h29.1Zm0,17.7H498v-8.4h29.1Zm0,15H498V138h29.1Zm0,15H498v-2.7h29.1Zm0,21.9H498v-2.7h29.1ZM558,45.6V45c0-9.9-5.7-18-15.3-18-10.8,0-15.6,8.1-15.6,18v.6h-28.8C501,17.1,520.19,7.2,543,7.2s41.1,9.6,43.5,38.4Zm28.8,24H558V49.8h28.8Zm0,21H558V75h28.8Zm0,18.6H558V97.5h28.8Zm0,17.7H558v-8.4h28.8Zm0,15H558V138h28.8Zm0,15H558v-2.7h28.8Zm0,21.9H558v-2.7h28.8Z"/><path class="cls-3" d="M663.59,45.9h-32.7V13.5c0-1.8.9-2.4,2.4-2.4h19.8c1.8,0,2.1.6,2.4,2.1Zm6,23.7h-38.7V49.8h33.6Zm-16.5,21h-22.2V75h22.2Zm0,18.6h-22.2V97.5h22.2Zm0,17.7h-22.2v-8.4h22.2Zm0,15h-22.2V138h22.2Zm0,15h-22.2v-2.7h22.2Zm0,21.9h-22.2v-2.7h22.2ZM675,90.3h-17.7L653.39,75h17.7Zm4.5,18.9h-17.7l-2.7-11.7h17.4Zm4.5,17.7h-17.7l-2.1-8.4h17.7Zm3.6,15h-17.4L669,138h17.7Zm24.6,15h-38.4v-2.7h38.4Zm.3,21.9h-33.6v-2.7h33.6Zm-.3-132.9H690V13.5c0-1.8.9-2.4,2.4-2.4h17.1c1.8,0,2.7.6,2.7,2.1Zm0,23.7h-21.9L690,49.8h22.2Zm0,21h-21.9V75h21.9Zm0,18.6h-21.9V97.5h21.9Zm0,17.7h-21.9v-8.4h21.9Zm0,15h-21.9V138h21.9Z"/><path class="cls-3" d="M876.88,45.9c-1.5-6.3-6-13.5-16.8-13.5h-12.6V45.9h-29.1V13.5c0-1.8.9-2.4,2.4-2.4h35.7c31.8,0,41.7,8.7,48.3,34.8Zm-29.4,23.7h-29.1V49.8h29.1Zm0,21h-29.1V75h29.1Zm53.4,6.9a35.32,35.32,0,0,1-7.5,11.7h-75V97.5h29.1v10.2h12.3c8.1,0,13.2-4.2,15.9-10.2Zm-82.5,29.4v-8.4h62.4a47.64,47.64,0,0,1,14.4,8.4Zm29.1,15h-29.1V138h29.1Zm0,15h-29.1v-2.7h29.1Zm0,21.9h-29.1v-2.7h29.1Zm57-36.9h-28.2l-2.1-3.9H903Zm-25.2-72.3a104.06,104.06,0,0,0-1.5-19.8h27.6a139.29,139.29,0,0,1,.9,19.8ZM906,75c-.9,8.4-1.5,11.7-2.7,15.6h-25.5c.9-3.9,1.5-6.6,1.5-15.6Zm1.8,81.9h-27.6l-.6-2.7h27.9Zm.9,21.9h-27.9v-2.7h27.9Z"/><path class="cls-3" d="M1020.88,32.1h-41.1V45.9h-29.1V13.5c0-1.8.9-2.4,2.4-2.4h65.1c1.8,0,2.7.3,2.7,2.1Zm-41.1,37.5h-29.1V49.8h29.1Zm0,21h-29.1V75h29.1Zm33.9,18.6h-63V97.5h29.1v9.3h33.9Zm0,17.7h-63v-8.4h63Zm-33.9,15h-29.1V138h29.1Zm0,15h-29.1v-2.7h29.1Zm0,21.9h-29.1v-2.7h29.1Z"/><path class="cls-3" d="M1132.78,32.1h-41.1V45.9h-29.1V13.5c0-1.8.9-2.4,2.4-2.4h65.1c1.8,0,2.7.3,2.7,2.1Zm-41.1,37.5h-29.1V49.8h29.1Zm0,21h-29.1V75h29.1Zm33.9,18.6h-63V97.5h29.1v9.3h33.9Zm0,17.7h-63v-8.4h63Zm-33.9,15h-29.1V138h29.1Zm0,15h-29.1v-2.7h29.1Zm0,21.9h-29.1v-2.7h29.1Z"/><path class="cls-3" d="M1231.78,45.6c-3.6-9.9-8.1-13.5-18-13.5,0,0-10.2-.3-10.2,0V45.9h-29.1V13.5c0-1.8.9-2.4,2.4-2.4h36.9c31.5,0,42.6,9.9,47.4,34.8Zm-27.9,4.2-.3,19.8h-29.1V49.8Zm-.3,40.8h-29.1V75h29.1Zm0,18.6h-29.1V97.5h29.1Zm43.2,9.3a103.19,103.19,0,0,1-11.7,6.3l3.9,2.1h-64.5v-8.4Zm-43.2,23.4h-29.1V138h29.1Zm0,15h-29.1v-2.7h29.1Zm0,21.9h-29.1v-2.7h29.1Zm20.4-36.9a9.73,9.73,0,0,0-4.5-3.9h30.3a12.33,12.33,0,0,1,2.4,3.9Zm36.6-44.4a40.78,40.78,0,0,1-5.1,11.7h-27.6c2.1-3,3.6-7.5,4.5-11.7Zm-3.6,59.4h-28.2l-.3-2.7h27.9Zm2.1,21.9h-28.8v-2.7h28.8Zm-24.6-109.2a117.6,117.6,0,0,0-1.8-19.8h29.1a100.19,100.19,0,0,1,1.2,19.8ZM1263,75a91.17,91.17,0,0,1-1.2,15.6h-28.2a121.65,121.65,0,0,0,.9-15.6Z"/><path class="cls-3" d="M1355.37,69.3c-.3-3.6-.6-7.2-.6-11.1V49.8h29.1v5.4a56.79,56.79,0,0,0,1.8,14.1Zm56.7-23.7c-1.5-13.8-6.3-18.6-14.1-18.6-9.3,0-13.2,5.7-14.1,18.6h-28.8c2.1-23.4,13.5-38.4,40.2-38.4,25.5,0,35.4,13.5,37.2,38.4Zm-36.9,130.5c0,.9-.3,1.8-.3,2.7h-19.5c0-.9.3-1.8.3-2.7Zm-14.7-85.5A71.25,71.25,0,0,1,1356,75h31.5a84.08,84.08,0,0,0,7.8,15.6Zm9.6,18.3a111.52,111.52,0,0,1-6.6-11.4h36.6a69.1,69.1,0,0,0,4.2,5.7c1.5,1.8,2.7,3.9,4.2,5.7Zm13.5,18-2.7-3.6a57.79,57.79,0,0,1-3.9-5.1h38.1c1.8,3,3.6,5.7,5.1,8.7Zm10.5,15c-.9-1.2-1.2-2.7-2.1-3.9h33.9c.6,1.2,1.2,2.7,1.8,3.9Zm7.5,14.7c-.3-.9-.6-1.5-.9-2.4h31.2c.3.9.3,1.5.6,2.4Zm4.8,22.2c0-.9-.3-1.8-.3-2.7h29.7v2.7Zm25.5-106.5h-20.1c.3-2.7.9-9.3.9-15,0-2.7-.3-5.1-.3-7.5h20.4V54C1432.77,60,1432.17,67.8,1431.87,72.3Z"/><path class="cls-3" d="M1533.27,45.9c-3.6-11.1-9.9-13.8-17.7-13.8h-9V45.9h-29.1V13.5c0-1.8,2.4-2.4,2.4-2.4h39.6c30.6,0,38.4,16.5,42.9,34.8Zm-26.7,23.7h-29.1V49.8h29.1Zm0,21h-29.1V75h29.1Zm0,18.6h-29.1V97.5h29.1Zm0,17.7h-29.1v-8.4h29.1Zm42.3,11.1a21,21,0,0,1-4.8,3.9h-66.6V138Zm-42.3,18.9h-29.1v-2.7h29.1Zm0,21.9h-29.1v-2.7h29.1Zm53.4-60.3a48.87,48.87,0,0,1-3.3,8.4h-36.6c5.4-1.5,8.1-3.6,10.8-8.4Zm4.2-21a89.23,89.23,0,0,1-1.5,11.7h-28.5c.9-4.5,1.8-7.2,2.1-11.7Zm-27.3-27.9a102.19,102.19,0,0,0-2.4-19.8H1563a128.51,128.51,0,0,1,2.1,19.8Zm28.2,5.4-.3,15.6h-28.2l.3-15.6Z"/><path class="cls-3" d="M1618.47,176.1l-.3,2.7h-20.4l.3-2.7Zm2.7-21.9-.3,2.7h-20.1l.3-2.7ZM1623,138l-.6,3.9h-19.8l.6-3.9Zm2.1-19.5-.9,8.4h-19.8l1.2-8.4Zm2.4-21-1.5,11.7h-19.2l1.5-11.7Zm2.4-22.5-1.5,15.6h-19.2L1611,75Zm3-25.2-2.4,19.8h-18.6l2.4-19.8Zm24.6-3.9h-22.2l-.9-10.5-1.2,10.5h-18.3l4.2-32.4c.3-1.8.9-2.4,2.4-2.4h29.1c1.8,0,2.4.6,2.7,2.1Zm3.3,23.7h-23.4l-1.8-19.8h22.5Zm2.7,21h-24.3L1638,75h23.4Zm2.4,18.6H1641l-1.2-11.7h24.6Zm2.4,17.7h-26.1l-.6-8.4h25.5Zm1.8,15h-26.4l-.3-3.9h26.4Zm2.1,15h-27.3l-.3-2.7h27.3Zm3,21.9h-28.5v-2.7h27.9Z"/><path class="cls-3" d="M1745.07,69.6H1716V49.8h29.1Zm0,21H1716V75h29.1Zm0,18.6H1716V97.5h29.1Zm0,17.7H1716v-8.4h29.1Zm0,15H1716V138h29.1Zm0,15H1716v-2.7h29.1Zm0,21.9H1716v-2.7h29.1Zm33-133.2c-1.5-13.2-6.6-18.6-16.2-18.6-12.9,0-16.5,8.4-16.8,18.9h-28.8c2.4-26.4,18.6-38.7,43.2-38.7,22.8,0,36.9,7.2,38.7,38.7Zm19.5,29.4-.6,3.3-19.5-1.5.3-1.8Zm.9-25.2c0,6.3-.3,14.1-.6,19.8h-19.5a145,145,0,0,0,0-19.8Zm.3,129.3h-20.1v-2.7h19.8Z"/><path class="cls-3" d="M1910.66,32.1h-41.1V45.9h-29.1V13.5c0-1.8.9-2.4,2.4-2.4H1908c1.8,0,2.7.3,2.7,2.1Zm-41.1,37.5h-29.1V49.8h29.1Zm0,21h-29.1V75h29.1Zm33.9,18.6h-63V97.5h29.1v9.3h33.9Zm0,17.7h-63v-8.4h63Zm-33.9,15h-29.1V138h29.1Zm0,15h-29.1v-2.7h29.1Zm0,21.9h-29.1v-2.7h29.1Z"/></svg>