<svg id="Layer_1" data-name="Layer 1" xmlns="http://www.w3.org/2000/svg" xmlns:xlink="http://www.w3.org/1999/xlink" viewBox="0 0 805.63 784.45"><defs><style>.cls-1,.cls-3{fill:#8ee8ef;}.cls-2{fill:#0096c6;}.cls-3{stroke:#0096c6;stroke-miterlimit:10;stroke-width:3px;}.cls-4{fill:url(#linear-gradient);}.cls-5{fill:#fa757b;}.cls-6{fill:#f59b7f;}</style><linearGradient id="linear-gradient" x1="51.83" y1="196.2" x2="723.17" y2="583.8" gradientTransform="translate(380.98 -159.74) rotate(44.14)" gradientUnits="userSpaceOnUse"><stop offset="0" stop-color="#7db4e9" stop-opacity="0.2"/><stop offset="1" stop-color="#29abe2" stop-opacity="0.4"/></linearGradient></defs><title>Artboard 1</title><circle class="cls-1" cx="404.83" cy="383.19" r="375" transform="translate(-152.55 390.09) rotate(-44.14)"/><path class="cls-2" d="M143.7,114.06l5-4.59,6.08-5.63c1.22-1.1,2.47-2.36,3.94-3.58l4.67-3.91L168.61,92c1.86-1.53,3.75-3.22,5.9-4.77,4.25-3.18,8.81-6.75,13.85-10.45l8-5.49,4.23-2.89,2.17-1.48c.73-.49,1.51-.93,2.27-1.41l9.46-5.81c1.63-1,3.25-2,5-3l5.23-2.88c3.54-1.94,7.15-4,10.89-6L247.34,42l3-1.48,1.53-.74,1.57-.68,6.35-2.75c4.29-1.82,8.62-3.85,13.21-5.47s9.19-3.51,14-5.19l14.74-4.79c1.24-.43,2.53-.76,3.81-1.11l3.86-1.05,7.83-2.13c1.32-.35,2.63-.75,4-1.05l4-.91,8.19-1.84a395.07,395.07,0,0,1,71.46-8.46c12.71-.42,25.78,0,39.15.88,3.35.12,6.69.59,10.06.91l10.18,1.07c3.4.44,6.8,1,10.24,1.51l5.16.78c1.72.28,3.47.48,5.18.86a408.66,408.66,0,0,1,41.88,10l10.59,3.19,10.53,3.72c7.12,2.35,14,5.43,21.12,8.27l2.65,1.09c.88.37,1.74.8,2.61,1.19l5.23,2.43c3.49,1.64,7,3.22,10.52,4.94l10.37,5.46,5.22,2.75c1.72,1,3.4,2,5.11,3L621,62.51c1.75,1,3.37,2.15,5.05,3.24l5,3.33,5.06,3.34,2.54,1.68,2.45,1.8L651,83.14c3.36,2.36,6.49,5,9.7,7.62s6.43,5.21,9.62,7.89l9.29,8.39,4.67,4.23c0-.07.72.69.83.81l.54.54,1.08,1.07,2.16,2.15,8.66,8.63,1.09,1.08,1.09,1.2,2.19,2.42,4.39,4.85c6.05,6.44,11.29,13.19,16.82,19.93a382.93,382.93,0,0,1,29.63,43.71l3.4,5.78.85,1.45.78,1.48,1.56,3,6.26,12c2,4.05,3.81,8.19,5.72,12.31l2.83,6.21,2.54,6.34,2.55,6.36,1.27,3.19c.43,1.06.86,2.13,1.21,3.22l4.5,13,1.12,3.27c.38,1.09.66,2.21,1,3.32l1.94,6.66c1.26,4.46,2.7,8.89,3.67,13.44l3.21,13.63c.92,4.58,1.74,9.2,2.6,13.81.4,2.31.91,4.62,1.22,6.95l.94,7,.94,7,.47,3.52c.13,1.18.21,2.35.32,3.53l1.21,14.18.14,1.78.06,1.78.13,3.57.25,7.15c.07,2.38.19,4.77.22,7.16l-.09,7.17-.1,7.19-.05,3.6c0,1.2-.13,2.4-.19,3.6l-.92,14.41c-.11,2.41-.47,4.8-.71,7.2l-.81,7.2c-.28,2.4-.52,4.81-.84,7.21l-1.17,7.17-1.18,7.19-.59,3.6c-.19,1.2-.49,2.38-.73,3.57l-3.06,14.29-.39,1.79-.46,1.77-.94,3.54-1.9,7.08c-.65,2.36-1.25,4.73-1.94,7.08l-2.24,7-2.25,7-1.13,3.5c-.39,1.17-.85,2.3-1.27,3.46l-5.24,13.79-.66,1.72-.74,1.69L774.55,546l-3,6.77c-1,2.25-2,4.53-3,6.76l-3.29,6.63L762,572.78l-1.67,3.31c-.56,1.1-1.2,2.16-1.8,3.24a401.21,401.21,0,0,1-32.22,49.93l-9.23,11.69c-.78,1-1.53,2-2.34,2.9l-2.46,2.8-4.92,5.59-4.93,5.58c-.81.95-1.67,1.83-2.54,2.72l-2.6,2.67-5.2,5.33-2.6,2.66-1.3,1.33-.65.67c-.46.45.12-.08-1.2,1.19l-10.16,9.35-2.54,2.33-1.27,1.17c-.42.39-1,.82-1.44,1.23l-5.93,5L659,698.34l-3,2.46c-1,.8-2,1.51-3,2.26L641.12,712c-2,1.52-4.08,2.83-6.13,4.23l-6.19,4.13-6.19,4.12-6.38,3.83-6.39,3.81-3.2,1.89-1.6.94-1.64.87-13.14,6.92c-1.1.56-2.18,1.17-3.3,1.7l-3.36,1.57-6.72,3.13-6.72,3.11c-2.26,1-4.57,1.86-6.85,2.8l-6.86,2.76L553,759.11l-1.71.69-1.74.61-13.95,4.82c-1.16.39-2.31.82-3.49,1.18l-3.54,1-7.07,2-7.06,2c-2.37.62-4.76,1.15-7.14,1.73l-7.14,1.69-3.56.84-1.78.42-1.8.34-14.38,2.63a401.42,401.42,0,0,1-57.76,5.22c-2.4.12-4.8.07-7.2,0l-7.19-.11-7.18-.13c-2.39-.1-4.77-.29-7.16-.43l-7.14-.47-3.56-.24-1.78-.12-1.77-.19-14.15-1.63c-1.18-.14-2.35-.26-3.52-.43l-3.5-.57-7-1.15-7-1.16c-2.32-.38-4.61-1-6.91-1.42-4.59-1-9.18-2-13.73-3l-13.53-3.62c-4.52-1.12-8.92-2.65-13.33-4.06l-6.6-2.15c-1.1-.37-2.2-.69-3.28-1.1l-3.24-1.22-12.91-4.89c-1.08-.39-2.13-.85-3.18-1.31l-3.15-1.37-6.29-2.74-6.26-2.74-6.12-3c-4.06-2-8.15-4-12.15-6.08l-11.78-6.62-2.93-1.65-1.46-.83-1.42-.89-5.68-3.57a384.59,384.59,0,0,1-42.82-31c-6.55-5.73-13.21-11.23-19.28-17.31l-4.63-4.45-2.31-2.22-1.15-1.11-1.1-1.16L128.81,659l-2.17-2.31-1.08-1.15L125,655c-.13-.13-.83-.91-.77-.86l-3.92-4.63-7.8-9.21c-2.59-3.27-5.17-6.68-7.73-10s-5.18-6.63-7.42-10l-6.94-10.08-1.72-2.51-1.6-2.59-3.18-5.16-3.17-5.13c-1-1.72-2.16-3.38-3.08-5.15L71.9,579.17c-.95-1.74-1.93-3.45-2.84-5.2l-2.6-5.31-5.14-10.54c-1.62-3.54-3.09-7.13-4.62-10.67l-2.27-5.3c-.37-.88-.77-1.75-1.11-2.65l-1-2.69c-2.63-7.17-5.5-14.17-7.63-21.37l-3.4-10.64-2.87-10.69a407.29,407.29,0,0,1-8.7-42.18,395.4,395.4,0,0,1,7.07-151.31l2.09-8.13,1-4c.35-1.33.79-2.63,1.17-3.94l2.37-7.76L44.61,273c.39-1.27.75-2.54,1.22-3.77l5.24-14.59c1.83-4.73,3.79-9.3,5.61-13.81s3.91-8.81,5.86-13l2.94-6.27.72-1.54.79-1.5,1.58-3,6.08-11.56c2.12-3.68,4.26-7.23,6.3-10.71l3-5.14c1-1.67,2.13-3.26,3.17-4.86l6.1-9.28c.5-.75,1-1.51,1.48-2.22l1.55-2.12,3-4.14,5.73-7.87c3.86-4.93,7.56-9.38,10.87-13.53,1.61-2.11,3.36-3.94,4.95-5.75l4.55-5.12,4-4.55c1.26-1.43,2.56-2.64,3.69-3.83l5.81-5.91Zm0,0L139,118.89l-5.79,5.93c-1.13,1.19-2.43,2.41-3.68,3.85l-4,4.57L121,138.37c-1.58,1.82-3.32,3.66-4.92,5.77-3.28,4.16-6.91,8.67-10.71,13.64l-5.63,7.93-3,4.17L95.2,172c-.5.72-1,1.49-1.45,2.24l-5.95,9.35c-1,1.61-2.07,3.22-3.07,4.91l-2.93,5.18c-2,3.51-4,7.09-6.07,10.79l-5.83,11.64-1.49,3-.74,1.52L67,222.21l-2.75,6.32c-1.83,4.27-3.85,8.56-5.47,13.13a345.06,345.06,0,0,0-17.63,60,363.06,363.06,0,0,0-5.22,108.63c.21,3.25.78,6.49,1.19,9.76l1.34,9.84c.52,3.29,1.21,6.57,1.81,9.88l.94,5c.33,1.66.58,3.33,1,5a369,369,0,0,0,27.5,79.57l1.15,2.47c.39.82.84,1.61,1.26,2.42L74.7,539c1.73,3.22,3.37,6.5,5.17,9.71l5.65,9.53L88.36,563c1,1.57,2,3.11,3.07,4.67l6.2,9.35c1,1.59,2.18,3.06,3.28,4.59l3.36,4.55,3.37,4.56,1.69,2.28,1.81,2.2,7.25,8.83c2.37,3,5,5.73,7.49,8.52s5,5.57,7.65,8.38l8.55,8.52,4.3,4.28,4.09,3.66,8.72,7.83,1.09,1,1.14.93,2.29,1.85,4.58,3.71c6,5.09,12.52,9.58,18.89,14.28.81.57,1.58,1.19,2.42,1.73l2.49,1.63,5,3.27,5,3.28c.84.54,1.65,1.12,2.51,1.62l2.58,1.51,10.35,6.08c1.7,1.05,3.51,1.94,5.28,2.88l5.34,2.79,5.35,2.79,1.34.7,1.37.63,2.75,1.26,11,5.07c3.72,1.59,7.5,3.06,11.25,4.61l5.64,2.29,5.76,2a363,363,0,0,0,96.26,20.14l12.43.68,1.55.09h1.56l3.12,0,6.24.06c2.08,0,4.16.06,6.24,0l6.25-.25,6.25-.23c2.08-.07,4.17-.12,6.25-.34l12.49-1c2.09-.12,4.15-.49,6.23-.74l6.22-.82c2.07-.28,4.15-.51,6.23-.81l6.19-1.1,6.19-1.09,3.1-.54c1-.17,2-.45,3.07-.67l12.28-2.78,1.54-.34,1.52-.42,3-.84,6.08-1.67c2-.57,4.06-1.08,6.08-1.69l6-2,6-2,3-1c1-.33,2-.73,3-1.1l11.82-4.46,1.48-.56,1.45-.63,2.9-1.26,5.8-2.52c1.93-.85,3.88-1.64,5.79-2.54l5.68-2.79,5.69-2.78,2.85-1.39c.95-.46,1.85-1,2.78-1.51l11.09-6.12,1.39-.76,1.35-.83,2.69-1.67,5.4-3.32,5.4-3.31,5.23-3.59,5.24-3.58c1.73-1.21,3.53-2.33,5.18-3.66l10.12-7.67c.83-.64,1.72-1.26,2.51-1.91l2.33-2,4.67-3.9,4.68-3.88c.4-.34.76-.61,1.19-1L633,642l2.53-2.35,10.14-9.37c-.92.85.07-.09,0,0l.56-.57,1.11-1.14,2.23-2.27,4.46-4.53,2.23-2.26c.75-.75,1.5-1.5,2.18-2.31l4.22-4.75,4.22-4.75,2.11-2.37c.69-.8,1.33-1.65,2-2.46l8-9.87c1.38-1.61,2.55-3.37,3.81-5.07l3.74-5.13,3.75-5.12,3.48-5.3,3.5-5.29L699,564.4l.87-1.32.8-1.36,6.45-10.9c.53-.91,1.1-1.8,1.59-2.74l1.47-2.8,3-5.6,3-5.58c1-1.88,1.8-3.81,2.71-5.71l2.69-5.72,1.35-2.86.68-1.43.6-1.46L729,505.22c.4-1,.84-1.94,1.2-2.92l1.07-3,2.14-5.94,2.15-5.94c.67-2,1.24-4,1.87-6l1.85-6,.93-3,.47-1.51.39-1.53,3.15-12.2c.25-1,.56-2,.76-3.05l.64-3.08,1.28-6.16,1.29-6.16c.37-2.06.67-4.13,1-6.2l1-6.2c.31-2.07.75-4.12.93-6.21l1.41-12.46c.28-2.07.4-4.16.53-6.24l.43-6.24.44-6.24c.09-2.08.09-4.16.15-6.24l.13-6.24.07-3.12,0-1.56,0-1.56-.3-12.46a362.79,362.79,0,0,0-17.23-96.87L734.89,255l-2.12-5.71c-1.43-3.8-2.79-7.62-4.26-11.39l-4.74-11.16L722.59,224,722,222.6l-.66-1.36-2.63-5.43-2.63-5.43c-.88-1.81-1.71-3.64-2.72-5.37l-5.77-10.53-1.44-2.63c-.47-.88-1-1.71-1.54-2.56l-3.13-5.09-3.11-5.09-1.55-2.54c-.51-.85-1.11-1.64-1.66-2.47-4.5-6.5-8.85-13.23-13.6-19.18l-3.48-4.6-1.74-2.3-.87-1.15-1-1.17-7.9-9.32-3.68-4.33-4-4.25L651,119.31c-2.73-2.72-5.53-5.36-8.29-8s-5.47-5.4-8.4-7.84l-8.61-7.52L623.52,94l-2.23-1.76-4.46-3.51-4.45-3.49c-1.49-1.15-2.93-2.37-4.49-3.42l-9.17-6.48c-1.53-1.07-3-2.17-4.58-3.21l-4.7-3-9.36-5.94c-3.16-1.89-6.38-3.64-9.55-5.46l-4.76-2.7c-.8-.44-1.58-.92-2.38-1.33L561,52.55c-6.52-3.19-12.87-6.62-19.49-9.34l-9.79-4.3-9.89-3.79-4.92-1.88c-.82-.3-1.63-.64-2.46-.92l-2.49-.81L502,28.26c-1.65-.52-3.28-1.1-4.94-1.56l-5-1.35-9.88-2.68c-1.63-.48-3.3-.79-4.94-1.16l-4.94-1.08c-3.29-.71-6.55-1.48-9.82-2.1l-9.8-1.64c-3.26-.51-6.48-1.18-9.72-1.49a363.19,363.19,0,0,0-108.75,2A345.24,345.24,0,0,0,273.79,33c-4.61,1.48-9,3.38-13.28,5.07l-6.4,2.56-1.58.63L251,42l-3,1.4-11.81,5.47c-3.77,1.93-7.41,3.88-11,5.74l-5.27,2.77c-1.71.94-3.35,2-5,2.92l-9.53,5.66c-.77.47-1.54.9-2.28,1.38l-2.18,1.45-4.26,2.84L188.56,77c-5.07,3.65-9.69,7.14-14,10.3-2.16,1.54-4.05,3.22-5.92,4.74l-5.27,4.37-4.69,3.89c-1.47,1.21-2.73,2.47-4,3.56l-6.1,5.61Z"/><circle class="cls-3" cx="389.5" cy="389" r="387.5" transform="translate(-160.93 381.05) rotate(-44.14)"/><circle class="cls-4" cx="387.5" cy="390" r="387.5" transform="translate(-162.19 379.94) rotate(-44.14)"/><path class="cls-5" d="M194.43,484.39H144V254h50.7c28.8,0,47.7,16.8,47.7,58.8,0,25.8-6.3,44.4-19.8,53.1,14.4,7.5,22.5,25.2,22.5,55.8C245.13,463.09,227.73,484.39,194.43,484.39Zm-4.2-198.3h-6.3v64.5h6.3c9.6,0,14.7-5.4,14.7-32.4C204.93,288.79,198.63,286.09,190.23,286.09Zm-2.7,96h-3.6v70.5h6.9c10.8,0,15.6-8.4,15.6-33.6C206.43,389.89,197.43,382.09,187.53,382.09Z"/><path class="cls-5" d="M363.33,484.39h-81V254H363v31.8h-40.8v63.9h33.9v32.4h-33.9v70.5h41.1Z"/><path class="cls-5" d="M481.23,484.39h-81V254h80.7v31.8h-40.8v63.9H474v32.4h-33.9v70.5h41.1Z"/><path class="cls-5" d="M577.83,485a42,42,0,0,1-3-13.8c-.6-20.1-.6-27.6-.9-42.3-.6-34.5-5.4-38.1-10.2-38.1H558V485h-39.9V254h49.8c32.1,0,49.2,18.3,49.2,60.6,0,32.1-2.7,49.2-22.8,59.1,17.4,11.1,19.2,38.1,19.2,52.8v17.4c0,21.6,1.2,30,3.9,41.1Zm-14.4-199.2H558v72.9h5.1c9,0,15-7.2,15-38.1C578.13,290.59,572.13,285.79,563.43,285.79Z"/><path class="cls-2" d="M215.73,507.19h-52.5l-21-21v-234h52.5c11.4,0,21.3,2.7,29.1,8.1,30,21,41.4,42,41.4,71.4,0,23.7-5.1,38.1-18.6,49.5,14.4,14.1,21.3,29.7,21.3,56.4C267.93,479.59,250.23,507.19,215.73,507.19Zm3-141c14.7-7.2,21.9-25.8,21.9-53.4,0-41.1-18.3-57-45.9-57h-48.9v226.8h48.6c32.1,0,48.9-20.1,48.9-60.9C243.33,389,234,372.19,218.73,366.19Zm-28.5-13.8h-8.1v-68.1h8.1c10.2,0,16.5,4.5,16.5,33.9C206.73,344.89,201.63,352.39,190.23,352.39Zm.6,102h-8.7v-74.1h5.4c11.7,0,20.7,9.6,20.7,38.7C208.23,443.89,203.43,454.39,190.83,454.39Z"/><path class="cls-2" d="M386.43,507.19h-85.2l-20.7-21v-234h84.3l21,21.3v35.1H345v39.3h12.9l21,21.6v35.4H345v45.9h20.1l21.3,21.3Zm-24.9-24.6v-28.2h-41.1v-74.1h33.9v-28.8h-33.9V284h40.8v-28.2h-77.1v226.8Z"/><path class="cls-2" d="M504.33,507.19h-85.2l-20.7-21v-234h84.3l21,21.3v35.1h-40.8v39.3h12.9l21,21.6v35.4h-33.9v45.9H483l21.3,21.3Zm-24.9-24.6v-28.2h-41.1v-74.1h33.9v-28.8h-33.9V284h40.8v-28.2H402v226.8Z"/><path class="cls-2" d="M598.23,507.49l-17.4-16.8v16.8h-43.2l-21.3-21.3v-234h51.6c12.9,0,23.7,2.7,31.5,9,24.9,20.4,40.5,36.9,40.5,70.2,0,33.6-9.3,48.6-24,56.4,16.2,13.2,20.4,29.7,20.4,54v23.4c0,23.4,1.2,30.6,4.2,42.3Zm-30.3-251.7h-48v227.4h36.3V389h7.5c6.9,0,11.4,6.3,12,39.9.3,14.7.3,22.2.9,42.3a42.37,42.37,0,0,0,2.4,12h36c-2.1-9-3.3-17.7-3.3-39.3v-17.4c0-15.9-2.1-44.1-21.3-53.1,21.9-9,24.9-24.9,24.9-58.8C615.33,272.89,598.83,255.79,567.93,255.79Zm-4.8,104.7h-6.9V284h7.2c10.5,0,16.5,6.9,16.5,36.6C579.93,351.19,574.23,360.49,563.13,360.49Z"/><path class="cls-6" d="M207.93,294.19c-1.5-6.3-6-13.5-16.8-13.5h-12.6v13.5h-29.1v-32.4c0-1.8.9-2.4,2.4-2.4h35.7c31.8,0,41.7,8.7,48.3,34.8Zm-29.4,23.7h-29.1v-19.8h29.1Zm0,21h-29.1v-15.6h29.1Zm53.4,6.9a35.33,35.33,0,0,1-7.5,11.7h-75v-11.7h29.1V356h12.3c8.1,0,13.2-4.2,15.9-10.2Zm-82.5,29.4v-8.4h62.4a47.64,47.64,0,0,1,14.4,8.4Zm29.1,15h-29.1v-3.9h29.1Zm0,15h-29.1v-2.7h29.1Zm0,21.9h-29.1v-2.7h29.1Zm57-36.9h-28.2l-2.1-3.9H234Zm-25.2-72.3a104.1,104.1,0,0,0-1.5-19.8h27.6a139.37,139.37,0,0,1,.9,19.8Zm26.7,5.4c-.9,8.4-1.5,11.7-2.7,15.6h-25.5c.9-3.9,1.5-6.6,1.5-15.6Zm1.8,81.9h-27.6l-.6-2.7h27.9Zm.9,21.9h-27.9v-2.7h27.9Z"/><path class="cls-6" d="M357.93,280.39h-41.1v13.8h-29.1v-32.4c0-1.8.9-2.4,2.4-2.4h65.1c1.8,0,2.7.3,2.7,2.1Zm-41.1,37.5h-29.1v-19.8h29.1Zm0,21h-29.1v-15.6h29.1Zm33.9,18.6h-63v-11.7h29.1v9.3h33.9Zm0,17.7h-63v-8.4h63Zm-33.9,15h-29.1v-3.9h29.1Zm0,15h-29.1v-2.7h29.1Zm0,21.9h-29.1v-2.7h29.1Z"/><path class="cls-6" d="M475.83,280.39h-41.1v13.8h-29.1v-32.4c0-1.8.9-2.4,2.4-2.4h65.1c1.8,0,2.7.3,2.7,2.1Zm-41.1,37.5h-29.1v-19.8h29.1Zm0,21h-29.1v-15.6h29.1Zm33.9,18.6h-63v-11.7h29.1v9.3h33.9Zm0,17.7h-63v-8.4h63Zm-33.9,15h-29.1v-3.9h29.1Zm0,15h-29.1v-2.7h29.1Zm0,21.9h-29.1v-2.7h29.1Z"/><path class="cls-6" d="M580.83,293.89c-3.6-9.9-8.1-13.5-18-13.5,0,0-10.2-.3-10.2,0v13.8h-29.1v-32.4c0-1.8.9-2.4,2.4-2.4h36.9c31.5,0,42.6,9.9,47.4,34.8Zm-27.9,4.2-.3,19.8h-29.1v-19.8Zm-.3,40.8h-29.1v-15.6h29.1Zm0,18.6h-29.1v-11.7h29.1Zm43.2,9.3a103.19,103.19,0,0,1-11.7,6.3l3.9,2.1h-64.5v-8.4Zm-43.2,23.4h-29.1v-3.9h29.1Zm0,15h-29.1v-2.7h29.1Zm0,21.9h-29.1v-2.7h29.1Zm20.4-36.9a9.73,9.73,0,0,0-4.5-3.9h30.3a12.32,12.32,0,0,1,2.4,3.9Zm36.6-44.4a40.78,40.78,0,0,1-5.1,11.7h-27.6c2.1-3,3.6-7.5,4.5-11.7Zm-3.6,59.4h-28.2l-.3-2.7h27.9Zm2.1,21.9h-28.8v-2.7h28.8Zm-24.6-109.2a117.6,117.6,0,0,0-1.8-19.8h29.1a100.19,100.19,0,0,1,1.2,19.8Zm28.5,5.4a91.17,91.17,0,0,1-1.2,15.6h-28.2a121.65,121.65,0,0,0,.9-15.6Z"/><path class="cls-2" d="M145.28,167.69H158.2v61.74h38.64v11.76H145.28Z"/><path class="cls-2" d="M196.1,204.65v-.21c0-20.68,16-38,38.53-38S273,183.55,273,204.23v.21c0,20.68-16,38-38.53,38S196.1,225.33,196.1,204.65Zm63.31,0v-.21c0-14.28-10.39-26-25-26S209.65,190,209.65,204.23v.21c0,14.28,10.39,26,25,26S259.41,218.93,259.41,204.65Z"/><path class="cls-2" d="M282.31,167.69h12l39.37,50.82V167.69h12.7v73.5H335.54L295,188.9v52.29h-12.7Z"/><path class="cls-2" d="M359,167.69h27.4c23.1,0,39.06,15.85,39.06,36.54v.21c0,20.68-16,36.75-39.06,36.75H359Zm12.92,11.76v50h14.49c15.43,0,25.51-10.39,25.51-24.78v-.21c0-14.38-10.08-25-25.51-25Z"/><path class="cls-2" d="M431.51,204.65v-.21c0-20.68,16-38,38.53-38s38.32,17.11,38.32,37.8v.21c0,20.68-16,38-38.53,38S431.51,225.33,431.51,204.65Zm63.31,0v-.21c0-14.28-10.39-26-25-26S445.05,190,445.05,204.23v.21c0,14.28,10.39,26,25,26S494.82,218.93,494.82,204.65Z"/><path class="cls-2" d="M515.61,167.69h12L567,218.51V167.69h12.7v73.5H568.85L528.32,188.9v52.29H515.61Z"/><path class="cls-2" d="M242.15,590l10.92-13.08c7.56,6.24,15.48,10.2,25.08,10.2,7.56,0,12.12-3,12.12-7.92v-.24c0-4.68-2.88-7.08-16.92-10.68-16.92-4.32-27.84-9-27.84-25.68v-.24c0-15.24,12.24-25.32,29.4-25.32a48.63,48.63,0,0,1,31.2,10.68l-9.6,13.92c-7.44-5.16-14.76-8.28-21.84-8.28s-10.8,3.24-10.8,7.32v.24c0,5.52,3.6,7.32,18.12,11,17,4.44,26.64,10.56,26.64,25.2v.24c0,16.68-12.72,26-30.84,26A53.45,53.45,0,0,1,242.15,590Z"/><path class="cls-2" d="M315.11,518.19h34.32c20,0,32.16,11.88,32.16,29v.24c0,19.44-15.12,29.52-34,29.52h-14v25.2H315.11Zm33.12,42.36c9.24,0,14.64-5.52,14.64-12.72v-.24c0-8.28-5.76-12.72-15-12.72H333.59v25.68Z"/><path class="cls-2" d="M406.07,517.59h17l36,84.6H439.79l-7.68-18.84H396.59l-7.68,18.84H370.07ZM425.51,567l-11.16-27.24L403.19,567Z"/><path class="cls-2" d="M453.47,560.43v-.24c0-23.88,18-43.44,43.8-43.44,15.84,0,25.32,5.28,33.12,13l-11.76,13.56c-6.48-5.88-13.08-9.48-21.48-9.48-14.16,0-24.36,11.76-24.36,26.16v.24c0,14.4,10,26.4,24.36,26.4,9.6,0,15.48-3.84,22.08-9.84L531,588.63c-8.64,9.24-18.24,15-34.44,15C471.83,603.63,453.47,584.55,453.47,560.43Z"/><path class="cls-2" d="M538.55,518.19h63.36v16.44h-45v17h39.6v16.44h-39.6v17.64h45.6v16.44h-64Z"/></svg>